<?xml version="1.0" encoding="UTF-8"?>
<svg width="52px" height="70px" viewBox="0 0 52 70" version="1.1" xmlns="http://www.w3.org/2000/svg" xmlns:xlink="http://www.w3.org/1999/xlink">
    <!-- Generator: Sketch 48.2 (47327) - http://www.bohemiancoding.com/sketch -->
    <title>001-donation</title>
    <desc>Created with Sketch.</desc>
    <defs></defs>
    <g id="Extra-large-≥1200px" stroke="none" stroke-width="1" fill="none" fill-rule="evenodd" transform="translate(-831.000000, -290.000000)">
        <g id="SudheaderIcons" transform="translate(0.000000, 241.000000)" fill-rule="nonzero">
            <g id="Donation" transform="translate(831.000000, 40.000000)">
                <g id="001-donation" transform="translate(0.000000, 9.000000)">
                    <path d="M20.4185418,30.0001386 C24.3476806,30.0001386 26.1104736,32.1771587 26.8040407,33.4558515 C26.8912272,33.6163116 27.1275558,33.616173 27.2144619,33.4554358 C27.9056461,32.176743 29.6587672,30 33.5876257,30 C38.0630116,30 42,33.020198 42,38.5351494 C42,40.7669034 41.5399581,42.6785684 40.2629985,44.8122172 C37.6608605,49.1602992 29.0888312,54.7970506 27.3281408,55.9076621 C27.1335831,56.0304321 26.8868818,56.0308478 26.6919037,55.9084935 C24.9296714,54.8031476 16.3559601,49.1943865 13.7336373,44.8122172 C12.4568179,42.6785684 12,40.7667648 12,38.5351494 C11.9997197,33.0204751 15.9431559,30.0001386 20.4185418,30.0001386 Z" id="Shape" fill="#CEE8FA"></path>
                    <g id="Group" fill="#2D527C">
                        <path d="M25.9045435,58.410088 C25.4191402,58.410088 24.9456055,58.2721826 24.5349211,58.011244 C23.4966785,57.3509207 14.3151506,51.4219364 11.419994,46.5161558 C10.0747834,44.2370668 9.4750088,42.0350426 9.4750088,39.3769843 C9.4750088,36.2815497 10.5321334,33.6433659 12.5324161,31.7474376 C14.3628952,30.0122636 16.8597755,29.0566605 19.5630096,29.0566605 C22.6321507,29.0566605 24.643358,30.2261521 25.9025204,31.4360689 C27.1592552,30.2260169 29.1674953,29.0566605 32.2339389,29.0566605 C34.937173,29.0566605 37.4329744,30.0123988 39.2621048,31.7479784 C41.2598249,33.6435011 42.3156008,36.2815497 42.3156008,39.3769843 C42.3156008,42.0315274 41.715017,44.2332812 40.3673786,46.5161558 C37.4929923,51.3870544 28.3168593,57.3441606 27.2799654,58.0074584 C26.8680672,58.2708306 26.3925094,58.410088 25.9045435,58.410088 Z M19.5630096,33.0411792 C16.5203034,33.0411792 13.4500833,35.0001114 13.4500833,39.3767139 C13.4500833,41.3321309 13.8529452,42.8128559 14.8411503,44.4869189 C16.6685274,47.5835704 22.4904005,51.9023067 25.9022507,54.1523274 C29.3132916,51.891761 35.1323324,47.5608566 36.9463572,44.4869189 C37.9365855,42.8089351 38.3406612,41.3283452 38.3406612,39.3767139 C38.3406612,35.0001114 35.2734083,33.0411792 32.2339389,33.0411792 C29.6356351,33.0411792 28.4184177,34.3017965 27.8549236,35.3592061 C27.4691905,36.0819925 26.7218662,36.5303201 25.9042738,36.5303201 C25.0880301,36.5303201 24.3411104,36.0828037 23.9555121,35.3627214 C23.3890509,34.3034189 22.1672479,33.0411792 19.5630096,33.0411792 Z" id="Shape"></path>
                        <path d="M34.501942,16.5352589 C33.8046551,16.5352589 33.1281385,16.1667001 32.7643895,15.5130016 C32.2297579,14.5518553 32.5734111,13.3382881 33.5319445,12.8024852 L40.098849,9.13109282 C41.0573824,8.59528991 42.2681259,8.93964772 42.8027575,9.90052364 C43.337389,10.8613996 42.9937359,12.0752372 42.0352025,12.6110401 L35.4682979,16.2824324 C35.1617345,16.4540029 34.8296803,16.5352589 34.501942,16.5352589 Z" id="Shape"></path>
                        <path d="M41.6001063,19.0478406 C41.4204571,19.0478406 41.2378408,19.0230988 41.0563034,18.9715871 L33.8227279,16.9128763 C32.7666823,16.6124589 32.15396,15.510568 32.4535101,14.4520767 C32.7535997,13.3937206 33.8525346,12.7792305 34.9085802,13.0796479 L42.1421557,15.1383587 C43.1982014,15.4387761 43.8109237,16.540667 43.5113736,17.5991583 C43.2626701,18.4756685 42.4662525,19.0478406 41.6001063,19.0478406 Z" id="Shape"></path>
                        <path d="M25.8953722,69.2230855 C11.6432067,69.2230855 0.0481492077,57.5996912 0.0481492077,43.3126953 C0.0481492077,37.2686546 2.29929326,31.1710743 6.73900088,25.1892262 C9.69862613,21.2015979 13.2324003,17.8338678 16.2323522,15.3307502 L13.6800396,7.51124558 C13.1038676,5.74551609 13.3972136,3.87054393 14.4849541,2.36656423 C15.5725597,0.86244934 17.2589959,0 19.1119986,0 L32.678611,0 C34.5316137,0 36.2183196,0.86244934 37.3056555,2.36642903 C38.393396,3.87027352 38.6868769,5.74538089 38.11057,7.51111038 L35.4879892,15.5459907 C35.1467637,16.5920435 34.0231473,17.1621875 32.9811283,16.8201282 C31.9378955,16.4777984 31.3688717,15.3526528 31.7100971,14.3068705 L34.3326779,6.27199011 C34.5080112,5.73442958 34.4187261,5.16360953 34.087616,4.7055474 C33.7562362,4.24775566 33.2429144,3.98505946 32.678611,3.98505946 L19.1119986,3.98505946 C18.5476952,3.98505946 18.0343734,4.24762046 17.7029936,4.7055474 C17.3718835,5.16360953 17.2825984,5.73456478 17.4579317,6.27212531 L19.6324686,12.9341713 L19.9317489,12.9341713 C20.7849475,12.9341713 21.5430615,13.4801143 21.8155024,14.2907815 C22.0878084,15.1013135 21.8134793,15.9959408 21.1339955,16.5130859 C14.743773,21.3788469 4.02322372,31.330747 4.02322372,43.3126953 C4.02322372,55.4025342 13.8350072,65.2381612 25.8953722,65.2381612 C37.9557372,65.2381612 47.7673859,55.402399 47.7673859,43.3126953 C47.7673859,38.2350738 45.9097975,33.0714643 42.2466813,27.9654505 C41.605636,27.0720401 41.808618,25.8272413 42.6995806,25.1846294 C43.590813,24.5418822 44.8329816,24.7457658 45.4736224,25.6386355 C49.6333363,31.4363393 51.7423255,37.3827646 51.7423255,43.3125601 C51.7425953,57.5996912 40.1475377,69.2230855 25.8953722,69.2230855 Z" id="Shape"></path>
                        <path d="M33.3332784,16.9188251 L19.9320187,16.9188251 C18.8344325,16.9188251 17.944414,16.0267667 17.944414,14.926363 C17.944414,13.8259593 18.8344325,12.9339009 19.9320187,12.9339009 L33.3332784,12.9339009 C34.4308646,12.9339009 35.3208831,13.8259593 35.3208831,14.926363 C35.3208831,16.0267667 34.4309994,16.9188251 33.3332784,16.9188251 Z" id="Shape"></path>
                    </g>
                </g>
            </g>
        </g>
    </g>
</svg>