<?xml version="1.0" encoding="UTF-8"?>
<svg width="70px" height="49px" viewBox="0 0 70 49" version="1.1" xmlns="http://www.w3.org/2000/svg" xmlns:xlink="http://www.w3.org/1999/xlink">
    <!-- Generator: Sketch 48.2 (47327) - http://www.bohemiancoding.com/sketch -->
    <title>003-dove</title>
    <desc>Created with Sketch.</desc>
    <defs></defs>
    <g id="Extra-large-≥1200px" stroke="none" stroke-width="1" fill="none" fill-rule="evenodd" transform="translate(-411.000000, -302.000000)">
        <g id="SudheaderIcons" transform="translate(0.000000, 241.000000)" fill-rule="nonzero">
            <g id="Eleven" transform="translate(411.000000, 61.000000)">
                <g id="003-dove">
                    <path d="M33.8400914,48.6111111 C26.483122,48.6111111 18.6964457,46.6095811 12.7788507,43.1658181 C6.7753963,39.6718775 2.86346443,36.5196616 0.638914628,34.4905271 C-0.163350644,33.7585319 -0.217491245,32.5182333 0.518465462,31.7202866 C1.25373858,30.9224758 2.5011599,30.8683547 3.30369861,31.6004858 C5.38674457,33.5004367 9.06707498,36.4620049 14.7700217,39.7813436 C24.7796071,45.6065724 44.3764539,48.3708296 54.6497697,35.8033045 C56.6335579,33.3771004 57.4027373,31.4050786 58.2170338,29.3170636 C59.2997091,26.5411119 60.5063882,23.4465526 64.5177146,19.2217047 C64.0050195,18.8786202 63.566426,18.4566658 63.2996878,17.9406113 C63.1378129,17.6270351 62.9614458,17.2728 62.7692193,16.8859291 C60.5159586,12.3551201 56.3222495,3.92147035 46.6003202,3.92147035 C41.3660451,3.92147035 36.8582932,7.26664584 33.2022987,13.8635767 C32.6767521,14.8119203 31.4770456,15.1569085 30.524253,14.6343269 C29.5707769,14.1116092 29.2237848,12.9189046 29.7493315,11.9706969 C34.1512631,4.02753689 39.8208505,0 46.6001834,0 C51.8772514,0 56.4636166,1.98371626 60.2328141,5.89566782 C63.2700198,9.04829175 65.0952143,12.718602 66.303124,15.1472538 C66.4511903,15.44492 66.5890027,15.7223248 66.7179285,15.9752527 C67.0449596,16.1868418 67.8928889,16.4832842 68.4632793,16.6116519 C69.1762672,16.7719756 69.7414623,17.3116911 69.9319114,18.013498 C70.1223606,18.715441 69.906345,19.4645699 69.3708179,19.959955 C64.2470116,24.6988176 63.1033598,27.6310135 61.8924423,30.7352276 C61.0036341,33.0145704 60.0842009,35.3715592 57.708577,38.2772385 C51.043951,46.4300839 41.7195996,48.3866036 35.0706963,48.5923455 C34.6627278,48.6048559 34.2517514,48.6111111 33.8400914,48.6111111 Z" id="Shape" fill="#2D527C"></path>
                    <path d="M13.5566127,28.9849621 C18.6314585,32.8041446 25.3576323,33.3224506 30.5846643,32.9581439 C35.3990996,32.6226018 38.7779833,28.049569 37.7230316,23.2970286 C36.5776018,18.1368989 34.166687,11.7786953 29.0918412,7.95951276 C19.4625673,0.712726485 3.88888889,5.35061543 3.88888889,5.35061543 C3.88888889,5.35061543 3.9274732,21.7381758 13.5566127,28.9849621 Z" id="Shape" fill="#CEE8FA"></path>
                    <g id="Group" transform="translate(0.972222, 1.944444)" fill="#2D527C">
                        <path d="M26.3834133,33.0055 C26.383003,33.0055 26.3825927,33.0055 26.3821824,33.0055 C19.956353,33.0055 14.6708085,31.5138175 10.672153,28.5720079 C0.206503978,20.8724921 0.0462240693,4.2205873 0.0445829781,3.51535714 C0.0423948565,2.65146032 0.618144359,1.88942857 1.45824631,1.64481746 C1.67336601,1.58221429 6.79630577,0.111714286 13.1223021,0.111714286 C19.5478581,0.111714286 24.8336761,1.60339683 28.8324684,4.54547619 C34.5926986,8.78306349 37.1919135,15.7951587 38.3580456,20.9313175 C38.995336,23.7379365 38.3629689,26.667873 36.6230019,28.9700238 C34.883035,31.2721746 32.2168088,32.7061111 29.3082481,32.9041746 C28.3200377,32.9715 27.3360667,33.0055 26.3834133,33.0055 Z M4.06129049,5.01324603 C4.35367825,9.04764286 5.8101467,20.141627 13.0295805,25.4529127 C16.3322766,27.8826984 20.8247638,29.1147937 26.3821824,29.1147937 C26.3823192,29.1147937 26.3827295,29.1147937 26.383003,29.1147937 C27.2455332,29.1147937 28.13815,29.0838968 29.0367842,29.0226429 C30.7968546,28.9025635 32.4095002,28.0356984 33.4613029,26.6439921 C34.5131056,25.2524206 34.8952064,23.4799683 34.5095499,21.7817222 C33.488928,17.287246 31.2667537,11.1897778 26.4749041,7.66457143 C23.1720713,5.23451587 18.6794473,4.00255556 13.1221654,4.00255556 C9.30539749,4.00242063 5.91462951,4.60592063 4.06129049,5.01324603 Z" id="Shape"></path>
                        <path d="M51.418123,16.733127 L49.8406241,16.733127 C48.7517601,16.733127 47.8687163,15.8622143 47.8687163,14.7877063 C47.8687163,13.7131984 48.7517601,12.8422857 49.8406241,12.8422857 L51.418123,12.8422857 C52.5069871,12.8422857 53.3900309,13.7131984 53.3900309,14.7877063 C53.3900309,15.8622143 52.5071238,16.733127 51.418123,16.733127 Z" id="Shape"></path>
                    </g>
                </g>
            </g>
        </g>
    </g>
</svg>