<?xml version="1.0" encoding="UTF-8"?>
<svg width="28px" height="28px" viewBox="0 0 28 28" version="1.1" xmlns="http://www.w3.org/2000/svg" xmlns:xlink="http://www.w3.org/1999/xlink">
    <!-- Generator: Sketch 48.2 (47327) - http://www.bohemiancoding.com/sketch -->
    <title>Instagram</title>
    <desc>Created with Sketch.</desc>
    <defs></defs>
    <g id="Extra-large-≥1200px" stroke="none" stroke-width="1" fill="none" fill-rule="evenodd" transform="translate(-1169.000000, -57.000000)">
        <g id="HeaderBlock" transform="translate(390.000000, 20.000000)" fill="#2E91E8">
            <g id="Group-2" transform="translate(703.000000, 37.000000)">
                <g id="Instagram" transform="translate(76.000000, 0.000000)">
                    <path d="M0,14 C0,6.26801312 6.26801312,0 14,0 C21.7319869,0 28,6.26801312 28,14 C28,21.7319869 21.7319869,28 14,28 C6.26801312,28 0,21.7319869 0,14 Z M14.0007,6.53333333 C11.9728567,6.53333333 11.7183651,6.54220009 10.9219124,6.57844491 C10.1270152,6.61484529 9.58443178,6.74069105 9.10967128,6.92533742 C8.61857728,7.11605051 8.20199516,7.37116428 7.78696861,7.78634639 C7.37163095,8.20137293 7.11651719,8.61795505 6.92518186,9.1088935 C6.74006882,9.58380955 6.61406751,10.1265485 6.57828936,10.9211346 C6.54266676,11.7175873 6.53333333,11.9722344 6.53333333,14.0000778 C6.53333333,16.0279211 6.54235565,16.2816349 6.57844491,17.0780876 C6.61500085,17.8729848 6.74084661,18.4155682 6.92533742,18.8903287 C7.11620607,19.3814227 7.37131984,19.7980048 7.78650194,20.2130314 C8.20137293,20.628369 8.61795505,20.884105 9.10873794,21.0748181 C9.58380955,21.2594645 10.1265485,21.3853103 10.9212902,21.4217106 C11.7177429,21.4579555 11.9720789,21.4668222 13.9997667,21.4668222 C16.0277656,21.4668222 16.2814793,21.4579555 17.0779321,21.4217106 C17.8728292,21.3853103 18.4160349,21.2594645 18.8911065,21.0748181 C19.382045,20.884105 19.7980048,20.628369 20.2128758,20.2130314 C20.6282135,19.7980048 20.8833273,19.3814227 21.0746626,18.8904843 C21.2582201,18.4155682 21.3842214,17.8728292 21.4215551,17.0782432 C21.4573332,16.2817904 21.4666667,16.0279211 21.4666667,14.0000778 C21.4666667,11.9722344 21.4573332,11.7177429 21.4215551,10.9212902 C21.3842214,10.126393 21.2582201,9.58380955 21.0746626,9.10904905 C20.8833273,8.61795505 20.6282135,8.20137293 20.2128758,7.78634639 C19.7975382,7.37100873 19.3822005,7.11589496 18.8906398,6.92533742 C18.4146349,6.74069105 17.8717403,6.61484529 17.0768432,6.57844491 C16.2803904,6.54220009 16.0268322,6.53333333 13.9983666,6.53333333 L14.0007,6.53333333 Z" id="Combined-Shape"></path>
                    <path d="M13.3308708,7.87890291 C13.5296729,7.87859179 13.7514974,7.87890291 14.0007,7.87890291 C15.9943208,7.87890291 16.2306121,7.88605854 17.017887,7.92183669 C17.7458946,7.95512592 18.1410098,8.07677163 18.4042125,8.1789727 C18.7526606,8.31430744 19.0010854,8.4760869 19.2622659,8.73742296 C19.523602,8.99875901 19.6853814,9.2476505 19.8210273,9.59609857 C19.9232284,9.8589902 20.0450296,10.2541054 20.0781633,10.982113 C20.1139415,11.7692323 20.1217193,12.0056792 20.1217193,13.9983666 C20.1217193,15.9910541 20.1139415,16.227501 20.0781633,17.0146203 C20.0448741,17.7426279 19.9232284,18.1377431 19.8210273,18.4006347 C19.6856926,18.7490828 19.523602,18.9971965 19.2622659,19.258377 C19.0009299,19.5197131 18.7528162,19.6814925 18.4042125,19.8168273 C18.1413209,19.919495 17.7458946,20.0408296 17.017887,20.0741188 C16.2307677,20.109897 15.9943208,20.1176748 14.0007,20.1176748 C12.0069237,20.1176748 11.7706323,20.109897 10.983513,20.0741188 C10.2555054,20.0405185 9.86039021,19.9188728 9.59703191,19.8166717 C9.24858384,19.681337 8.99969236,19.5195575 8.7383563,19.2582214 C8.47702025,18.9968854 8.31524078,18.7486161 8.17959493,18.4000125 C8.07739386,18.1371209 7.95559259,17.7420056 7.92245891,17.0139981 C7.88668076,16.2268788 7.87952513,15.9904318 7.87952513,13.9965 C7.87952513,12.0025681 7.88668076,11.7673656 7.92245891,10.9802463 C7.95574815,10.2522387 8.07739386,9.85712351 8.17959493,9.59392077 C8.31492967,9.2454727 8.47702025,8.99658121 8.7383563,8.73524516 C8.99969236,8.4739091 9.24858384,8.31212964 9.59703191,8.17648378 C9.86023466,8.07381605 10.2555054,7.95248145 10.983513,7.91903666 C11.6723202,7.88792522 11.9392563,7.87859179 13.3308708,7.87703622 L13.3308708,7.87890291 Z M17.986386,9.1186936 C17.4917141,9.1186936 17.0903766,9.51956444 17.0903766,10.0143918 C17.0903766,10.5090636 17.4917141,10.9104012 17.986386,10.9104012 C18.4810578,10.9104012 18.8823953,10.5090636 18.8823953,10.0143918 C18.8823953,9.51972 18.4810578,9.11838248 17.986386,9.11838248 L17.986386,9.1186936 Z M14.0007,10.1655934 C11.8831002,10.1655934 10.1662156,11.8824779 10.1662156,14.0000778 C10.1662156,16.1176776 11.8831002,17.8337844 14.0007,17.8337844 C16.1182998,17.8337844 17.8345622,16.1176776 17.8345622,14.0000778 C17.8345622,11.8824779 16.1181443,10.1655934 14.0005445,10.1655934 L14.0007,10.1655934 Z" id="Combined-Shape"></path>
                    <path d="M14.0007,11.511163 C15.3752032,11.511163 16.4896148,12.625419 16.4896148,14.0000778 C16.4896148,15.374581 15.3752032,16.4889926 14.0007,16.4889926 C12.6260412,16.4889926 11.5117852,15.374581 11.5117852,14.0000778 C11.5117852,12.625419 12.6260412,11.511163 14.0007,11.511163 L14.0007,11.511163 Z" id="Shape"></path>
                </g>
            </g>
        </g>
    </g>
</svg>