<?xml version="1.0" encoding="UTF-8"?>
<svg width="52px" height="70px" viewBox="0 0 52 70" version="1.1" xmlns="http://www.w3.org/2000/svg" xmlns:xlink="http://www.w3.org/1999/xlink">
    <!-- Generator: Sketch 48.2 (47327) - http://www.bohemiancoding.com/sketch -->
    <title>002-teddy-bear</title>
    <desc>Created with Sketch.</desc>
    <defs></defs>
    <g id="Extra-large-≥1200px" stroke="none" stroke-width="1" fill="none" fill-rule="evenodd" transform="translate(-1234.000000, -290.000000)">
        <g id="SudheaderIcons" transform="translate(0.000000, 241.000000)" fill-rule="nonzero">
            <g id="SavedChilds" transform="translate(1234.000000, 40.000000)">
                <g id="002-teddy-bear" transform="translate(0.000000, 9.000000)">
                    <path d="M12.0058572,13.5253572 C13.0804566,10.5720171 15.0743213,8.05251464 17.6470588,6.29945885 C17.029421,3.70062224 14.6666721,1.76470588 11.8442221,1.76470588 C8.55166056,1.76470588 5.88235294,4.39841169 5.88235294,7.64705882 C5.88235294,10.895706 8.55152358,13.5294118 11.8442221,13.5294118 C11.8984658,13.5292766 11.9518875,13.5267087 12.0058572,13.5253572 Z" id="Shape" fill="#CEE8FA"></path>
                    <path d="M11.2546113,15.8823529 C6.99496467,15.8823529 3.52941176,12.3198046 3.52941176,7.94124573 C3.52941176,3.5626869 6.99509943,0 11.2546113,0 C14.8596326,0 17.9519224,2.51798299 18.7743141,6.12333349 C18.9489527,6.88920036 18.6498032,7.68664936 18.0201069,8.13350893 C15.7966983,9.71164625 14.0722765,12.0124328 13.164452,14.612003 C12.9047848,15.3558454 12.2265778,15.8588049 11.4582217,15.8775048 L11.4206259,15.878613 C11.3655123,15.8806907 11.3102639,15.8823529 11.2546113,15.8823529 Z M11.2546113,3.82448621 C9.04629495,3.82448621 7.24991553,5.67107171 7.24991553,7.94096869 C7.24991553,9.84323849 8.51186836,11.4485254 10.2203895,11.918656 C11.266739,9.58490214 12.8006215,7.53926605 14.7343132,5.89727186 C14.0383189,4.63675666 12.7293376,3.82448621 11.2546113,3.82448621 Z" id="Shape" fill="#2D527C"></path>
                    <path d="M39.9204838,1.76470588 C37.0980337,1.76470588 34.7351479,3.70062224 34.1176471,6.299594 C36.6905215,8.05251464 38.6842493,10.5720171 39.7588487,13.5254924 C39.8126814,13.5268439 39.8662401,13.5294118 39.9204838,13.5294118 C43.2130453,13.5294118 45.8823529,10.895706 45.8823529,7.64705882 C45.8823529,4.39841169 43.2131823,1.76470588 39.9204838,1.76470588 Z" id="Shape" fill="#CEE8FA"></path>
                    <path d="M39.9218955,15.8823529 C39.8662431,15.8823529 39.8109951,15.8808292 39.755747,15.8787515 L39.7184208,15.8776433 C38.9497988,15.8586663 38.2718645,15.3558454 38.0120638,14.6121415 C37.1042436,12.0127098 35.3798298,9.71178477 33.1564316,8.13364744 C32.5267383,7.68678788 32.2275902,6.88920036 32.4020932,6.123472 C33.2250201,2.51798299 36.3171606,0 39.9218955,0 C44.1815222,0 47.6470588,3.56227135 47.6470588,7.94096869 C47.6470588,12.319666 44.1816569,15.8823529 39.9218955,15.8823529 Z M36.4424794,5.89713334 C38.3761621,7.53912753 39.9097678,9.58490214 40.956382,11.9185175 C42.6650298,11.4485254 43.926842,9.84309997 43.926842,7.94083018 C43.926842,5.67107171 42.130471,3.82434769 39.922165,3.82434769 C38.4474456,3.82448621 37.1386052,4.63675666 36.4424794,5.89713334 Z" id="Shape" fill="#2D527C"></path>
                    <circle id="Oval" fill="#CEE8FA" cx="12.9411765" cy="61.7647059" r="5.88235294"></circle>
                    <path d="M13.2352941,70 C8.85651071,70 5.29411765,66.4374694 5.29411765,62.0588235 C5.29411765,57.6801776 8.85651071,54.1176471 13.2352941,54.1176471 C17.6140775,54.1176471 21.1764706,57.6801776 21.1764706,62.0588235 C21.1764706,66.4374694 17.61394,70 13.2352941,70 Z M13.2352941,57.9136284 C10.9497311,57.9136284 9.09009899,59.7731231 9.09009899,62.0588235 C9.09009899,64.344524 10.9495937,66.2040187 13.2352941,66.2040187 C15.5209946,66.2040187 17.3804892,64.344524 17.3804892,62.0588235 C17.3804892,59.7731231 15.5208571,57.9136284 13.2352941,57.9136284 Z" id="Shape" fill="#2D527C"></path>
                    <circle id="Oval" fill="#CEE8FA" cx="38.8235294" cy="61.7647059" r="5.88235294"></circle>
                    <g id="Group" transform="translate(0.000000, 1.764706)" fill="#2D527C">
                        <path d="M38.8431455,68.2352941 C34.5047183,68.2352941 30.9749102,64.6848665 30.9749102,60.3210961 C30.9749102,55.9573258 34.5047183,52.4068982 38.8431455,52.4068982 C43.1815728,52.4068982 46.7113808,55.9573258 46.7113808,60.3210961 C46.7113808,64.6848665 43.181709,68.2352941 38.8431455,68.2352941 Z M38.8431455,56.1899835 C36.5784396,56.1899835 34.7360248,58.0431609 34.7360248,60.3210961 C34.7360248,62.5990314 36.5784396,64.4522088 38.8431455,64.4522088 C41.1078514,64.4522088 42.9502663,62.5990314 42.9502663,60.3210961 C42.9502663,58.0431609 41.1078514,56.1899835 38.8431455,56.1899835 Z" id="Shape"></path>
                        <path d="M45.1363715,39.1067706 C44.4440867,39.1067706 43.7407678,38.9964706 43.0491641,38.7638129 C42.0641362,38.4327758 41.5324582,37.3612899 41.8615728,36.3705079 C42.1904149,35.379726 43.2554056,34.8446681 44.2409783,35.1759792 C45.7262167,35.6750012 47.3395046,34.8656319 47.8360372,33.3713064 C48.0763344,32.6471628 48.0222539,31.8724592 47.6833313,31.1894212 C47.3444087,30.5065202 46.7615108,29.9972218 46.0418452,29.7552469 C45.3219071,29.5132719 44.5517028,29.5678053 43.8727678,29.9088448 C43.1936966,30.2497472 42.6872198,30.8360501 42.4467864,31.5599197 C42.1176718,32.5505646 41.0525449,33.0852114 40.0673808,32.7544484 C39.0823529,32.4234113 38.5506749,31.3519253 38.8797895,30.3611434 C39.4387121,28.6785542 40.6154056,27.3157666 42.1932755,26.5237987 C43.7711455,25.7318309 45.5616594,25.6052256 47.2339319,26.1672762 C50.6866378,27.3276872 52.5572508,31.0972077 51.4034427,34.5702197 C50.480805,37.3471769 47.8992446,39.1067706 45.1363715,39.1067706 Z" id="Shape"></path>
                        <path d="M6.62819814,39.1067706 C3.86505263,39.1071817 1.28390093,37.347451 0.361263158,34.5700827 C-0.792408669,31.0972077 1.07793189,27.3275502 4.53063777,26.1671391 C6.20304644,25.6045405 7.99328793,25.7312828 9.57129412,26.5236617 C11.1493003,27.3159036 12.3259938,28.6786912 12.8847802,30.3610064 C13.2138947,31.3517883 12.6822167,32.4234113 11.6971889,32.7543114 C10.712161,33.0853485 9.64676161,32.5508386 9.31778328,31.5597827 C9.07721362,30.8359131 8.57087307,30.2493362 7.89180186,29.9087078 C7.21273065,29.5680794 6.44266254,29.5131349 5.72258824,29.7551099 C4.23694118,30.2545429 3.43213622,31.8767068 3.92839628,33.3711694 C4.42506502,34.865906 6.03767183,35.6750012 7.52345511,35.1758422 C8.50752941,34.844257 9.57388235,35.3793149 9.90286068,36.3703709 C10.2319752,37.3611528 9.70029721,38.4327758 8.71526935,38.7636759 C8.02393808,38.9963336 7.31993808,39.1067706 6.62819814,39.1067706 Z" id="Shape"></path>
                        <path d="M25.8822167,33.9785731 C16.5721981,33.9785731 8.99779567,26.3600614 8.99779567,16.9955209 C8.99779567,7.63098039 16.5720619,0.012605717 25.8822167,0.012605717 C35.1923715,0.012605717 42.7665015,7.63111741 42.7665015,16.9956579 C42.7665015,18.0401512 41.9243715,18.8872006 40.8859443,18.8872006 C39.847517,18.8872006 39.005387,18.0401512 39.005387,16.9956579 C39.005387,9.71722655 33.1183777,3.795691 25.8820805,3.795691 C18.6457833,3.795691 12.758774,9.71708953 12.758774,16.9956579 C12.758774,24.2742263 18.6457833,30.1956249 25.8820805,30.1956249 C29.2864272,30.1956249 32.5132755,28.8902481 34.9682848,26.5198252 C35.7171022,25.7963666 36.9078266,25.8204819 37.6272198,26.5744956 C38.3464768,27.3280983 38.3220929,28.5253674 37.5728669,29.2489629 C34.4142663,32.2988613 30.262192,33.9785731 25.8822167,33.9785731 Z" id="Shape"></path>
                        <path d="M25.8822167,65.7632034 C23.0852879,65.7632034 20.3714551,65.209922 17.8157771,64.1187054 C16.8954551,63.7255989 16.4418328,62.6771321 16.782935,61.7319773 C16.9457214,61.2809119 17.0284087,60.8060052 17.0284087,60.3215072 C17.0284087,58.0435719 15.1859938,56.1903945 12.9212879,56.1903945 C12.2204211,56.1903945 11.5284087,56.3716702 10.9196285,56.7144909 C10.047257,57.2061139 8.94562229,56.9249516 8.41135604,56.0750248 C6.32660062,52.7586251 5.2246935,48.9237468 5.2246935,44.9852823 L5.2246935,43.4435483 C5.2246935,36.5443846 8.5460805,30.3325065 14.3370526,26.4002079 C15.1978452,25.8154122 16.366774,26.0436853 16.9477647,26.9096433 C17.5288916,27.7754642 17.3020805,28.9512214 16.4412879,29.535606 C11.7030464,32.7529412 8.98567183,37.8222206 8.98567183,43.4432743 L8.98567183,44.9850083 C8.98567183,47.6813985 9.6163839,50.3175006 10.8211393,52.6945004 C11.5026625,52.5047295 12.2097957,52.4070352 12.9211517,52.4070352 C17.2597152,52.4070352 20.789387,55.9574628 20.789387,60.3212332 C20.789387,60.6095204 20.7739938,60.8963005 20.7433437,61.1807512 C22.3961362,61.7116986 24.1184025,61.9801181 25.8819443,61.9801181 C27.6454861,61.9801181 29.3678885,61.7116986 31.0205449,61.1806142 C30.990031,60.8964375 30.9746378,60.6095204 30.9746378,60.3212332 C30.9746378,55.9574628 34.5044458,52.4070352 38.8428731,52.4070352 C39.5542291,52.4070352 40.2613622,52.5048665 40.9428854,52.6945004 C42.1473684,50.3176376 42.7783529,47.6813985 42.7783529,44.9850083 L42.7783529,43.4432743 C42.7783529,37.8218096 40.0609783,32.7526671 35.3227368,29.535606 C34.461808,28.9510843 34.2352693,27.7753272 34.8162601,26.9096433 C35.397387,26.0435483 36.5663158,25.8158233 37.4269721,26.4002079 C43.2180805,30.3323695 46.5393313,36.5443846 46.5393313,43.4435483 L46.5393313,44.9852823 C46.5393313,48.9238838 45.4375604,52.7587621 43.3526687,56.0751618 C42.8184025,56.9248146 41.7171765,57.2061139 40.8442601,56.7144909 C40.2357523,56.3715332 39.5434675,56.1903945 38.8427368,56.1903945 C36.578031,56.1903945 34.7356161,58.0435719 34.7356161,60.3215072 C34.7356161,60.8062792 34.8181672,61.2809119 34.981226,61.7322514 C35.322192,62.6774061 34.8684334,63.7258729 33.9483839,64.1188424 C31.3931146,65.209785 28.6792817,65.7632034 25.8822167,65.7632034 Z" id="Shape"></path>
                    </g>
                    <path d="M21.9180007,38.8235294 C24.460381,38.8235294 25.6008065,40.2519171 26.0497264,41.0909719 C26.106148,41.1964343 26.2590588,41.1961611 26.3153441,41.0908353 C26.7624923,40.2517805 27.8970576,38.8238026 30.439029,38.8238026 C33.3349302,38.8238026 35.8823529,40.8053217 35.8823529,44.4236943 C35.8823529,45.8878737 35.5847084,47.142221 34.7584178,48.5420573 C33.0747638,51.394871 27.5282728,55.0930236 26.3888012,55.8218346 C26.2627384,55.9022975 26.1034223,55.9025707 25.9770869,55.822381 C24.8367977,55.0971218 19.2892164,51.4171383 17.5924791,48.5420573 C16.7663248,47.142221 16.4705882,45.8878737 16.4705882,44.4236943 C16.4705882,40.8050485 19.0220995,38.8235294 21.9180007,38.8235294 Z" id="Shape" fill="#CEE8FA"></path>
                    <path d="M25.594104,57.6470588 C25.1679158,57.6470588 24.7522507,57.5262152 24.3923045,57.29722 C23.2479776,56.5706733 17.4378408,52.776725 15.4875474,49.4772228 C14.5400577,47.8742563 14.1176471,46.3262433 14.1176471,44.457556 C14.1176471,40.1705119 17.1686906,37.0588235 21.3726955,37.0588235 C23.3109817,37.0588235 24.6694145,37.7074633 25.5926199,38.4587188 C26.5143414,37.7075983 27.8710203,37.0588235 29.8079574,37.0588235 C34.0095338,37.0588235 37.0588235,40.1705119 37.0588235,44.457556 C37.0588235,46.323948 36.6357383,47.871961 35.6867646,49.4772228 C33.750502,52.7526913 27.9446825,56.5639223 26.8003556,57.2945196 C26.4398697,57.5250001 26.0223159,57.6470588 25.594104,57.6470588 Z M21.3725606,40.7866117 C19.7440332,40.7866117 17.8424431,41.7480945 17.8424431,44.457556 C17.8424431,45.6519497 18.0890629,46.5565887 18.6933355,47.5789659 C19.8108148,49.4699316 23.3359405,52.1187689 25.5919454,53.6295162 C27.8484899,52.1110727 31.3715919,49.4552144 32.4805718,47.5789659 C33.0864633,46.5540233 33.3336228,45.6495193 33.3336228,44.457556 C33.3336228,41.7480945 31.4343262,40.7866117 29.8075527,40.7866117 C28.6334102,40.7866117 27.8127382,41.2089566 27.3680669,42.0416296 C27.0179693,42.6979655 26.3381458,43.1055932 25.5938342,43.1055932 C24.8507367,43.1055932 24.171318,42.6986406 23.8208156,42.043925 C23.3741207,41.2097667 22.5500758,40.7866117 21.3725606,40.7866117 Z" id="Shape" fill="#2D527C"></path>
                </g>
            </g>
        </g>
    </g>
</svg>