<?xml version="1.0" encoding="UTF-8"?>
<svg width="28px" height="28px" viewBox="0 0 28 28" version="1.1" xmlns="http://www.w3.org/2000/svg" xmlns:xlink="http://www.w3.org/1999/xlink">
    <!-- Generator: Sketch 48.2 (47327) - http://www.bohemiancoding.com/sketch -->
    <title>Telegram</title>
    <desc>Created with Sketch.</desc>
    <defs></defs>
    <g id="Extra-large-≥1200px" stroke="none" stroke-width="1" fill="none" fill-rule="evenodd" transform="translate(-1245.000000, -57.000000)">
        <g id="HeaderBlock" transform="translate(390.000000, 20.000000)" fill="#2E91E8">
            <g id="Group-2" transform="translate(703.000000, 37.000000)">
                <g id="Telegram" transform="translate(152.000000, 0.000000)">
                    <path d="M11.6715334,16.8479812 L11.4333333,20.4166667 C11.7833333,20.4166667 11.937975,20.2566 12.1333333,20.0666667 L13.8149145,18.4315391 L17.3133333,21.0162167 C17.9571583,21.371455 18.42183,21.18753 18.5822,20.418475 L20.8787833,9.596125 C21.1139133,8.653435 20.5194383,8.225875 19.90352,8.50550167 L6.41802,13.7054517 C5.49750833,14.0746667 5.502875,14.5882217 6.25023,14.8170517 L9.71091333,15.8971867 L17.7227633,10.8426033 C18.100985,10.6132483 18.448115,10.7365545 18.1632033,10.9894167 L11.6713333,16.8478333 Z M14,28 C6.2680135,28 0,21.7319865 0,14 C0,6.2680135 6.2680135,0 14,0 C21.7319865,0 28,6.2680135 28,14 C28,21.7319865 21.7319865,28 14,28 Z" id="Combined-Shape"></path>
                </g>
            </g>
        </g>
    </g>
</svg>