<?xml version="1.0" encoding="UTF-8"?>
<svg width="28px" height="28px" viewBox="0 0 28 28" version="1.1" xmlns="http://www.w3.org/2000/svg" xmlns:xlink="http://www.w3.org/1999/xlink">
    <!-- Generator: Sketch 48.2 (47327) - http://www.bohemiancoding.com/sketch -->
    <title>Combined Shape</title>
    <desc>Created with Sketch.</desc>
    <defs></defs>
    <g id="Extra-large-≥1200px" stroke="none" stroke-width="1" fill="none" fill-rule="evenodd" transform="translate(-1207.000000, -57.000000)">
        <g id="HeaderBlock" transform="translate(390.000000, 20.000000)" fill="#2E91E8">
            <g id="Group-2" transform="translate(703.000000, 37.000000)">
                <path d="M114,14 C114,6.26801312 120.268013,0 128,0 C135.731987,0 142,6.26801312 142,14 C142,21.7319869 135.731987,28 128,28 C120.268013,28 114,21.7319869 114,14 Z M127.580702,11.3793754 L127.61008,11.8638069 L127.120444,11.8044888 C125.338171,11.5771025 123.78113,10.8059666 122.459114,9.51085354 L121.812795,8.86824021 L121.646319,9.34278544 C121.293781,10.4006258 121.519014,11.5177844 122.253467,12.2691477 C122.645175,12.6843747 122.557041,12.7436929 121.881344,12.4965339 C121.646319,12.417443 121.440672,12.3581249 121.421087,12.387784 C121.352538,12.4569885 121.587563,13.3566471 121.773624,13.7125561 C122.028235,14.206874 122.547248,14.6913056 123.115225,14.97801 L123.595068,15.2053962 L123.027091,15.2152826 C122.478699,15.2152826 122.459114,15.225169 122.51787,15.4327825 C122.713724,16.0753958 123.487348,16.7575546 124.349107,17.0541454 L124.956255,17.2617589 L124.427449,17.5781224 C123.644032,18.0328949 122.723517,18.2899402 121.803002,18.3097129 C121.36233,18.3195993 121,18.3591447 121,18.3888038 C121,18.4876674 122.194711,19.0413035 122.889993,19.2588034 C124.975841,19.9014167 127.453396,19.6245987 129.314011,18.5272128 C130.636027,17.7461905 131.958043,16.1940321 132.574984,14.6913056 C132.907936,13.8905105 133.240888,12.4273294 133.240888,11.7253979 C133.240888,11.2706254 133.270266,11.2113073 133.818658,10.6675575 C134.141818,10.351194 134.445392,10.0051715 134.504148,9.90630789 C134.602075,9.71846708 134.592282,9.71846708 134.092854,9.88653518 C133.260474,10.1831259 133.142961,10.1435805 133.554255,9.69869436 C133.857829,9.38233087 134.220159,8.80892206 134.220159,8.64085396 C134.220159,8.61119488 134.073269,8.66062668 133.906793,8.74960391 C133.730524,8.84846749 133.338815,8.99676288 133.045034,9.08574011 L132.516228,9.25380821 L132.036385,8.92755837 C131.771982,8.74960391 131.399859,8.55187673 131.204004,8.49255858 C130.704576,8.35414955 129.940745,8.37392227 129.49028,8.53210401 C128.266191,8.97699016 127.492567,10.1238078 127.580702,11.3793754 Z" id="Combined-Shape"></path>
            </g>
        </g>
    </g>
</svg>