<?xml version="1.0" encoding="UTF-8"?>
<svg width="28px" height="28px" viewBox="0 0 28 28" version="1.1" xmlns="http://www.w3.org/2000/svg" xmlns:xlink="http://www.w3.org/1999/xlink">
    <!-- Generator: Sketch 48.2 (47327) - http://www.bohemiancoding.com/sketch -->
    <title>Youtube</title>
    <desc>Created with Sketch.</desc>
    <defs></defs>
    <g id="Extra-large-≥1200px" stroke="none" stroke-width="1" fill="none" fill-rule="evenodd" transform="translate(-1284.000000, -57.000000)">
        <g id="HeaderBlock" transform="translate(390.000000, 20.000000)" fill="#2E91E8">
            <g id="Group-2" transform="translate(703.000000, 37.000000)">
                <g id="Youtube" transform="translate(191.000000, 0.000000)">
                    <path d="M0,14 C0,6.26801312 6.17416814,0 13.7903914,0 C21.4066146,0 27.5807827,6.26801312 27.5807827,14 C27.5807827,21.7319869 21.4066146,28 13.7903914,28 C6.17416814,28 0,21.7319869 0,14 Z M20.9678689,11.1819612 C20.9678689,11.1819612 20.8241967,10.1304216 20.384,9.66736275 C19.825377,9.05932969 19.1992787,9.05646836 18.9123934,9.0211786 C16.856918,8.86666667 13.7737049,8.86666667 13.7737049,8.86666667 L13.7672787,8.86666667 C13.7672787,8.86666667 10.6840656,8.86666667 8.62859016,9.0211786 C8.3412459,9.05646836 7.71560656,9.05932969 7.15652459,9.66736275 C6.71632787,10.1304216 6.57311475,11.1819612 6.57311475,11.1819612 C6.57311475,11.1819612 6.42622951,12.4171028 6.42622951,13.6517676 L6.42622951,14.8096533 C6.42622951,16.044795 6.57311475,17.2794597 6.57311475,17.2794597 C6.57311475,17.2794597 6.71632787,18.3309992 7.15652459,18.7940581 C7.71560656,19.4020912 8.44957377,19.3830157 8.77639344,19.4464418 C9.95147541,19.5637565 13.7704918,19.6 13.7704918,19.6 C13.7704918,19.6 16.856918,19.5952311 18.9123934,19.4407192 C19.1992787,19.4049525 19.825377,19.4020912 20.384,18.7940581 C20.8241967,18.3309992 20.9678689,17.2794597 20.9678689,17.2794597 C20.9678689,17.2794597 21.1147541,16.044795 21.1147541,14.8096533 L21.1147541,13.6517676 C21.1147541,12.4171028 20.9678689,11.1819612 20.9678689,11.1819612 Z" id="Combined-Shape"></path>
                    <polygon id="Path" points="12.2539016 16.2126598 12.2534426 11.9249537 16.2220984 14.0761985"></polygon>
                </g>
            </g>
        </g>
    </g>
</svg>